%TF.GenerationSoftware,KiCad,Pcbnew,(6.0.4)*%
%TF.CreationDate,2022-04-27T14:48:19-04:00*%
%TF.ProjectId,bhi160_breakout,62686931-3630-45f6-9272-65616b6f7574,rev?*%
%TF.SameCoordinates,Original*%
%TF.FileFunction,Legend,Bot*%
%TF.FilePolarity,Positive*%
%FSLAX46Y46*%
G04 Gerber Fmt 4.6, Leading zero omitted, Abs format (unit mm)*
G04 Created by KiCad (PCBNEW (6.0.4)) date 2022-04-27 14:48:19*
%MOMM*%
%LPD*%
G01*
G04 APERTURE LIST*
%ADD10C,0.150000*%
G04 APERTURE END LIST*
D10*
X176783904Y-118880000D02*
X176879142Y-118832380D01*
X177022000Y-118832380D01*
X177164857Y-118880000D01*
X177260095Y-118975238D01*
X177307714Y-119070476D01*
X177355333Y-119260952D01*
X177355333Y-119403809D01*
X177307714Y-119594285D01*
X177260095Y-119689523D01*
X177164857Y-119784761D01*
X177022000Y-119832380D01*
X176926761Y-119832380D01*
X176783904Y-119784761D01*
X176736285Y-119737142D01*
X176736285Y-119403809D01*
X176926761Y-119403809D01*
X176307714Y-119832380D02*
X176307714Y-118832380D01*
X175736285Y-119832380D01*
X175736285Y-118832380D01*
X175260095Y-119832380D02*
X175260095Y-118832380D01*
X175022000Y-118832380D01*
X174879142Y-118880000D01*
X174783904Y-118975238D01*
X174736285Y-119070476D01*
X174688666Y-119260952D01*
X174688666Y-119403809D01*
X174736285Y-119594285D01*
X174783904Y-119689523D01*
X174879142Y-119784761D01*
X175022000Y-119832380D01*
X175260095Y-119832380D01*
X177355285Y-117260666D02*
X176879095Y-117260666D01*
X177450523Y-117546380D02*
X177117190Y-116546380D01*
X176783857Y-117546380D01*
X176498142Y-117498761D02*
X176355285Y-117546380D01*
X176117190Y-117546380D01*
X176021952Y-117498761D01*
X175974333Y-117451142D01*
X175926714Y-117355904D01*
X175926714Y-117260666D01*
X175974333Y-117165428D01*
X176021952Y-117117809D01*
X176117190Y-117070190D01*
X176307666Y-117022571D01*
X176402904Y-116974952D01*
X176450523Y-116927333D01*
X176498142Y-116832095D01*
X176498142Y-116736857D01*
X176450523Y-116641619D01*
X176402904Y-116594000D01*
X176307666Y-116546380D01*
X176069571Y-116546380D01*
X175926714Y-116594000D01*
X174926714Y-117451142D02*
X174974333Y-117498761D01*
X175117190Y-117546380D01*
X175212428Y-117546380D01*
X175355285Y-117498761D01*
X175450523Y-117403523D01*
X175498142Y-117308285D01*
X175545761Y-117117809D01*
X175545761Y-116974952D01*
X175498142Y-116784476D01*
X175450523Y-116689238D01*
X175355285Y-116594000D01*
X175212428Y-116546380D01*
X175117190Y-116546380D01*
X174974333Y-116594000D01*
X174926714Y-116641619D01*
X174498142Y-117546380D02*
X174498142Y-116546380D01*
X173926714Y-117546380D02*
X174355285Y-116974952D01*
X173926714Y-116546380D02*
X174498142Y-117117809D01*
X177410857Y-114466666D02*
X176934666Y-114466666D01*
X177506095Y-114752380D02*
X177172761Y-113752380D01*
X176839428Y-114752380D01*
X176553714Y-114704761D02*
X176410857Y-114752380D01*
X176172761Y-114752380D01*
X176077523Y-114704761D01*
X176029904Y-114657142D01*
X175982285Y-114561904D01*
X175982285Y-114466666D01*
X176029904Y-114371428D01*
X176077523Y-114323809D01*
X176172761Y-114276190D01*
X176363238Y-114228571D01*
X176458476Y-114180952D01*
X176506095Y-114133333D01*
X176553714Y-114038095D01*
X176553714Y-113942857D01*
X176506095Y-113847619D01*
X176458476Y-113800000D01*
X176363238Y-113752380D01*
X176125142Y-113752380D01*
X175982285Y-113800000D01*
X175553714Y-114752380D02*
X175553714Y-113752380D01*
X175315619Y-113752380D01*
X175172761Y-113800000D01*
X175077523Y-113895238D01*
X175029904Y-113990476D01*
X174982285Y-114180952D01*
X174982285Y-114323809D01*
X175029904Y-114514285D01*
X175077523Y-114609523D01*
X175172761Y-114704761D01*
X175315619Y-114752380D01*
X175553714Y-114752380D01*
X174601333Y-114466666D02*
X174125142Y-114466666D01*
X174696571Y-114752380D02*
X174363238Y-113752380D01*
X174029904Y-114752380D01*
X176990190Y-111260000D02*
X177085428Y-111212380D01*
X177228285Y-111212380D01*
X177371142Y-111260000D01*
X177466380Y-111355238D01*
X177514000Y-111450476D01*
X177561619Y-111640952D01*
X177561619Y-111783809D01*
X177514000Y-111974285D01*
X177466380Y-112069523D01*
X177371142Y-112164761D01*
X177228285Y-112212380D01*
X177133047Y-112212380D01*
X176990190Y-112164761D01*
X176942571Y-112117142D01*
X176942571Y-111783809D01*
X177133047Y-111783809D01*
X176514000Y-112212380D02*
X176514000Y-111212380D01*
X176133047Y-111212380D01*
X176037809Y-111260000D01*
X175990190Y-111307619D01*
X175942571Y-111402857D01*
X175942571Y-111545714D01*
X175990190Y-111640952D01*
X176037809Y-111688571D01*
X176133047Y-111736190D01*
X176514000Y-111736190D01*
X175514000Y-112212380D02*
X175514000Y-111212380D01*
X174847333Y-111212380D02*
X174656857Y-111212380D01*
X174561619Y-111260000D01*
X174466380Y-111355238D01*
X174418761Y-111545714D01*
X174418761Y-111879047D01*
X174466380Y-112069523D01*
X174561619Y-112164761D01*
X174656857Y-112212380D01*
X174847333Y-112212380D01*
X174942571Y-112164761D01*
X175037809Y-112069523D01*
X175085428Y-111879047D01*
X175085428Y-111545714D01*
X175037809Y-111355238D01*
X174942571Y-111260000D01*
X174847333Y-111212380D01*
X174085428Y-111212380D02*
X173418761Y-111212380D01*
X173847333Y-112212380D01*
X176990190Y-108974000D02*
X177085428Y-108926380D01*
X177228285Y-108926380D01*
X177371142Y-108974000D01*
X177466380Y-109069238D01*
X177514000Y-109164476D01*
X177561619Y-109354952D01*
X177561619Y-109497809D01*
X177514000Y-109688285D01*
X177466380Y-109783523D01*
X177371142Y-109878761D01*
X177228285Y-109926380D01*
X177133047Y-109926380D01*
X176990190Y-109878761D01*
X176942571Y-109831142D01*
X176942571Y-109497809D01*
X177133047Y-109497809D01*
X176514000Y-109926380D02*
X176514000Y-108926380D01*
X176133047Y-108926380D01*
X176037809Y-108974000D01*
X175990190Y-109021619D01*
X175942571Y-109116857D01*
X175942571Y-109259714D01*
X175990190Y-109354952D01*
X176037809Y-109402571D01*
X176133047Y-109450190D01*
X176514000Y-109450190D01*
X175514000Y-109926380D02*
X175514000Y-108926380D01*
X174847333Y-108926380D02*
X174656857Y-108926380D01*
X174561619Y-108974000D01*
X174466380Y-109069238D01*
X174418761Y-109259714D01*
X174418761Y-109593047D01*
X174466380Y-109783523D01*
X174561619Y-109878761D01*
X174656857Y-109926380D01*
X174847333Y-109926380D01*
X174942571Y-109878761D01*
X175037809Y-109783523D01*
X175085428Y-109593047D01*
X175085428Y-109259714D01*
X175037809Y-109069238D01*
X174942571Y-108974000D01*
X174847333Y-108926380D01*
X174037809Y-109021619D02*
X173990190Y-108974000D01*
X173894952Y-108926380D01*
X173656857Y-108926380D01*
X173561619Y-108974000D01*
X173514000Y-109021619D01*
X173466380Y-109116857D01*
X173466380Y-109212095D01*
X173514000Y-109354952D01*
X174085428Y-109926380D01*
X173466380Y-109926380D01*
X176990190Y-106180000D02*
X177085428Y-106132380D01*
X177228285Y-106132380D01*
X177371142Y-106180000D01*
X177466380Y-106275238D01*
X177514000Y-106370476D01*
X177561619Y-106560952D01*
X177561619Y-106703809D01*
X177514000Y-106894285D01*
X177466380Y-106989523D01*
X177371142Y-107084761D01*
X177228285Y-107132380D01*
X177133047Y-107132380D01*
X176990190Y-107084761D01*
X176942571Y-107037142D01*
X176942571Y-106703809D01*
X177133047Y-106703809D01*
X176514000Y-107132380D02*
X176514000Y-106132380D01*
X176133047Y-106132380D01*
X176037809Y-106180000D01*
X175990190Y-106227619D01*
X175942571Y-106322857D01*
X175942571Y-106465714D01*
X175990190Y-106560952D01*
X176037809Y-106608571D01*
X176133047Y-106656190D01*
X176514000Y-106656190D01*
X175514000Y-107132380D02*
X175514000Y-106132380D01*
X174847333Y-106132380D02*
X174656857Y-106132380D01*
X174561619Y-106180000D01*
X174466380Y-106275238D01*
X174418761Y-106465714D01*
X174418761Y-106799047D01*
X174466380Y-106989523D01*
X174561619Y-107084761D01*
X174656857Y-107132380D01*
X174847333Y-107132380D01*
X174942571Y-107084761D01*
X175037809Y-106989523D01*
X175085428Y-106799047D01*
X175085428Y-106465714D01*
X175037809Y-106275238D01*
X174942571Y-106180000D01*
X174847333Y-106132380D01*
X173466380Y-107132380D02*
X174037809Y-107132380D01*
X173752095Y-107132380D02*
X173752095Y-106132380D01*
X173847333Y-106275238D01*
X173942571Y-106370476D01*
X174037809Y-106418095D01*
X166036476Y-118880000D02*
X166131714Y-118832380D01*
X166274571Y-118832380D01*
X166417428Y-118880000D01*
X166512666Y-118975238D01*
X166560285Y-119070476D01*
X166607904Y-119260952D01*
X166607904Y-119403809D01*
X166560285Y-119594285D01*
X166512666Y-119689523D01*
X166417428Y-119784761D01*
X166274571Y-119832380D01*
X166179333Y-119832380D01*
X166036476Y-119784761D01*
X165988857Y-119737142D01*
X165988857Y-119403809D01*
X166179333Y-119403809D01*
X165560285Y-119832380D02*
X165560285Y-118832380D01*
X164988857Y-119832380D01*
X164988857Y-118832380D01*
X164512666Y-119832380D02*
X164512666Y-118832380D01*
X164274571Y-118832380D01*
X164131714Y-118880000D01*
X164036476Y-118975238D01*
X163988857Y-119070476D01*
X163941238Y-119260952D01*
X163941238Y-119403809D01*
X163988857Y-119594285D01*
X164036476Y-119689523D01*
X164131714Y-119784761D01*
X164274571Y-119832380D01*
X164512666Y-119832380D01*
X163560285Y-119546666D02*
X163084095Y-119546666D01*
X163655523Y-119832380D02*
X163322190Y-118832380D01*
X162988857Y-119832380D01*
X165099904Y-116340000D02*
X165195142Y-116292380D01*
X165338000Y-116292380D01*
X165480857Y-116340000D01*
X165576095Y-116435238D01*
X165623714Y-116530476D01*
X165671333Y-116720952D01*
X165671333Y-116863809D01*
X165623714Y-117054285D01*
X165576095Y-117149523D01*
X165480857Y-117244761D01*
X165338000Y-117292380D01*
X165242761Y-117292380D01*
X165099904Y-117244761D01*
X165052285Y-117197142D01*
X165052285Y-116863809D01*
X165242761Y-116863809D01*
X164623714Y-117292380D02*
X164623714Y-116292380D01*
X164052285Y-117292380D01*
X164052285Y-116292380D01*
X163576095Y-117292380D02*
X163576095Y-116292380D01*
X163338000Y-116292380D01*
X163195142Y-116340000D01*
X163099904Y-116435238D01*
X163052285Y-116530476D01*
X163004666Y-116720952D01*
X163004666Y-116863809D01*
X163052285Y-117054285D01*
X163099904Y-117149523D01*
X163195142Y-117244761D01*
X163338000Y-117292380D01*
X163576095Y-117292380D01*
X164988761Y-114752380D02*
X164988761Y-113752380D01*
X164512571Y-114752380D02*
X164512571Y-113752380D01*
X163941142Y-114752380D01*
X163941142Y-113752380D01*
X163607809Y-113752380D02*
X163036380Y-113752380D01*
X163322095Y-114752380D02*
X163322095Y-113752380D01*
X165623714Y-112164761D02*
X165480857Y-112212380D01*
X165242761Y-112212380D01*
X165147523Y-112164761D01*
X165099904Y-112117142D01*
X165052285Y-112021904D01*
X165052285Y-111926666D01*
X165099904Y-111831428D01*
X165147523Y-111783809D01*
X165242761Y-111736190D01*
X165433238Y-111688571D01*
X165528476Y-111640952D01*
X165576095Y-111593333D01*
X165623714Y-111498095D01*
X165623714Y-111402857D01*
X165576095Y-111307619D01*
X165528476Y-111260000D01*
X165433238Y-111212380D01*
X165195142Y-111212380D01*
X165052285Y-111260000D01*
X164052285Y-112117142D02*
X164099904Y-112164761D01*
X164242761Y-112212380D01*
X164338000Y-112212380D01*
X164480857Y-112164761D01*
X164576095Y-112069523D01*
X164623714Y-111974285D01*
X164671333Y-111783809D01*
X164671333Y-111640952D01*
X164623714Y-111450476D01*
X164576095Y-111355238D01*
X164480857Y-111260000D01*
X164338000Y-111212380D01*
X164242761Y-111212380D01*
X164099904Y-111260000D01*
X164052285Y-111307619D01*
X163623714Y-112212380D02*
X163623714Y-111212380D01*
X163052285Y-112212380D02*
X163480857Y-111640952D01*
X163052285Y-111212380D02*
X163623714Y-111783809D01*
X165552285Y-109624761D02*
X165409428Y-109672380D01*
X165171333Y-109672380D01*
X165076095Y-109624761D01*
X165028476Y-109577142D01*
X164980857Y-109481904D01*
X164980857Y-109386666D01*
X165028476Y-109291428D01*
X165076095Y-109243809D01*
X165171333Y-109196190D01*
X165361809Y-109148571D01*
X165457047Y-109100952D01*
X165504666Y-109053333D01*
X165552285Y-108958095D01*
X165552285Y-108862857D01*
X165504666Y-108767619D01*
X165457047Y-108720000D01*
X165361809Y-108672380D01*
X165123714Y-108672380D01*
X164980857Y-108720000D01*
X164552285Y-109672380D02*
X164552285Y-108672380D01*
X164314190Y-108672380D01*
X164171333Y-108720000D01*
X164076095Y-108815238D01*
X164028476Y-108910476D01*
X163980857Y-109100952D01*
X163980857Y-109243809D01*
X164028476Y-109434285D01*
X164076095Y-109529523D01*
X164171333Y-109624761D01*
X164314190Y-109672380D01*
X164552285Y-109672380D01*
X163599904Y-109386666D02*
X163123714Y-109386666D01*
X163695142Y-109672380D02*
X163361809Y-108672380D01*
X163028476Y-109672380D01*
X165569733Y-106132380D02*
X165236400Y-107132380D01*
X164903066Y-106132380D01*
X164569733Y-107132380D02*
X164569733Y-106132380D01*
X164331638Y-106132380D01*
X164188780Y-106180000D01*
X164093542Y-106275238D01*
X164045923Y-106370476D01*
X163998304Y-106560952D01*
X163998304Y-106703809D01*
X164045923Y-106894285D01*
X164093542Y-106989523D01*
X164188780Y-107084761D01*
X164331638Y-107132380D01*
X164569733Y-107132380D01*
X163569733Y-107132380D02*
X163569733Y-106132380D01*
X163331638Y-106132380D01*
X163188780Y-106180000D01*
X163093542Y-106275238D01*
X163045923Y-106370476D01*
X162998304Y-106560952D01*
X162998304Y-106703809D01*
X163045923Y-106894285D01*
X163093542Y-106989523D01*
X163188780Y-107084761D01*
X163331638Y-107132380D01*
X163569733Y-107132380D01*
X166506304Y-103490780D02*
X166172971Y-104490780D01*
X165839638Y-103490780D01*
X165506304Y-104490780D02*
X165506304Y-103490780D01*
X165268209Y-103490780D01*
X165125352Y-103538400D01*
X165030114Y-103633638D01*
X164982495Y-103728876D01*
X164934876Y-103919352D01*
X164934876Y-104062209D01*
X164982495Y-104252685D01*
X165030114Y-104347923D01*
X165125352Y-104443161D01*
X165268209Y-104490780D01*
X165506304Y-104490780D01*
X164506304Y-104490780D02*
X164506304Y-103490780D01*
X164268209Y-103490780D01*
X164125352Y-103538400D01*
X164030114Y-103633638D01*
X163982495Y-103728876D01*
X163934876Y-103919352D01*
X163934876Y-104062209D01*
X163982495Y-104252685D01*
X164030114Y-104347923D01*
X164125352Y-104443161D01*
X164268209Y-104490780D01*
X164506304Y-104490780D01*
X163553923Y-104205066D02*
X163077733Y-104205066D01*
X163649161Y-104490780D02*
X163315828Y-103490780D01*
X162982495Y-104490780D01*
M02*
